# xmcd
#
# Track frame offsets:
# 150
# 9610
# 39732
# 54482
# 84285
# 94955
# 106340
# 122975
# 152750
# 165862
#
# Disc length: 2598 seconds
#
#
# Revision: 3
# Processed by: cddbd v1.5.1PL0 Copyright (c) Steve Scherf et al.
# Submitted via: FreeRIP 2.90 
#
DISCID=710a250a,730a240a
DTITLE=Robben Ford - Live With Jimmy Witherspoon
DYEAR=1976
DGENRE=Blues
TTITLE0=Low Down Dirty Shame
TTITLE1=Goin' Down Slow
TTITLE2=Kansas City
TTITLE3=Past Forty Blues
TTITLE4=Times Are Getting Tough
TTITLE5=Outskirts Of Town
TTITLE6=S.K. Blues
TTITLE7='round The Clock
TTITLE8=Walkin' By Myself
TTITLE9=No Rollin' Blues
EXTD=
EXTT0=
EXTT1=
EXTT2=
EXTT3=
EXTT4=
EXTT5=
EXTT6=
EXTT7=
EXTT8=
EXTT9=
PLAYORDER=
